<svg width="160" height="160" viewBox="0 0 160 160" fill="none" xmlns="http://www.w3.org/2000/svg">
<path d="M40 31.618L41.7696 37.0643L41.8819 37.4098H42.2451H47.9717L43.3388 40.7758L43.0449 40.9894L43.1572 41.3348L44.9268 46.7812L40.2939 43.4152L40 43.2016L39.7061 43.4152L35.0732 46.7812L36.8428 41.3348L36.9551 40.9894L36.6612 40.7758L32.0283 37.4098H37.7549H38.1181L38.2304 37.0643L40 31.618Z" stroke="white"/>
<path d="M120 111.618L121.77 117.064L121.882 117.41H122.245H127.972L123.339 120.776L123.045 120.989L123.157 121.335L124.927 126.781L120.294 123.415L120 123.202L119.706 123.415L115.073 126.781L116.843 121.335L116.955 120.989L116.661 120.776L112.028 117.41H117.755H118.118L118.23 117.064L120 111.618Z" stroke="white"/>
</svg>
